<?xml version="1.0" ?><svg height="24px" id="Layer_1" style="enable-background:new 0 0 24 24;" version="1.1" viewBox="0 0 24 24" width="24px" xml:space="preserve" xmlns="http://www.w3.org/2000/svg" xmlns:xlink="http://www.w3.org/1999/xlink"><path d="M12,2C6.4771729,2,2,6.4771118,2,12c0,5.5228271,4.4771729,10,10,10s10-4.4771729,10-10C22,6.4771118,17.5228271,2,12,2z   M13,19h-2v-2h2V19z M14.340332,12.2441406C13.4887695,12.8603516,13,13.7275391,13,14.6230469V15h-2v-0.3769531  c0-1.5458984,0.7905273-3.0039063,2.1689453-4c0.628418-0.4541016,0.9345703-1.2177734,0.7983398-1.9941406  c-0.1381836-0.7861328-0.8095703-1.4580078-1.5966797-1.5957031c-0.6074219-0.1083984-1.1948242,0.046875-1.6552734,0.4335938  C10.2607422,7.8486328,10,8.4072266,10,9H8c0-1.1845703,0.5209961-2.3017578,1.4291992-3.0644531  c0.9077148-0.7617188,2.1088867-1.0771484,3.2871094-0.8730469c1.612793,0.2832031,2.9375,1.6074219,3.2207031,3.2207031  C16.206543,9.8203125,15.5947266,11.3378906,14.340332,12.2441406z"/></svg>