<?xml version="1.0" ?><svg data-name="Layer 1" id="Layer_1" viewBox="0 0 24 24" xmlns="http://www.w3.org/2000/svg"><defs><style>.cls-1{fill:none;}</style></defs><title/><path class="cls-1" d="M12,2a10,10,0,1,0,7.07,2.93A10,10,0,0,0,12,2Zm6,11H13v5a1,1,0,0,1-2,0V13H6a1,1,0,0,1,0-2h5V6a1,1,0,0,1,2,0v5h5A1,1,0,0,1,18,13Z"/><path d="M12,24A12,12,0,1,0,0,12,12,12,0,0,0,12,24ZM4.93,4.93A10,10,0,1,1,2,12,10,10,0,0,1,4.93,4.93Z"/><path d="M6,13h5v5a1,1,0,0,0,2,0V13h5a1,1,0,0,0,0-2H13V6a1,1,0,0,0-2,0v5H6A1,1,0,0,0,6,13Z"/></svg>