<?xml version="1.0" ?><!DOCTYPE svg  PUBLIC '-//W3C//DTD SVG 1.1//EN'  'http://www.w3.org/Graphics/SVG/1.1/DTD/svg11.dtd'><svg enable-background="new 0 0 512 512" height="512px" id="Layer_1" version="1.1" viewBox="0 0 512 512" width="512px" xml:space="preserve" xmlns="http://www.w3.org/2000/svg" xmlns:xlink="http://www.w3.org/1999/xlink"><g><path d="M272,80c0,17.563-7.953,33.453-20.844,45.016c-7.094,6.359-15.938,11.578-15.938,26.563v1.328   c0,1.5,0.641,2.938,1.766,3.953c1.125,1,2.609,1.5,4.109,1.344c32.828-3.516,89.188-10.953,105.5-13.734   c10.422-1.797,21.063,1.688,28.422,9.297c5.813,6.03,8.985,14.03,8.985,22.233c0,2.156-0.219,4.328-0.672,6.484   c-2.797,16.313-10.031,55.594-13.531,88.422c-0.156,1.5,0.328,2.984,1.344,4.109c1,1.125,2.438,1.766,3.953,1.766h1.313   c15,0,20.219-8.844,26.594-15.938C414.547,247.953,430.438,240,448,240c35.344,0,64,32.219,64,72s-28.656,72-64,72   c-17.563,0-33.453-7.953-45-20.844c-6.375-7.094-11.594-15.938-26.594-15.938h-1.313c-1.516,0-2.953,0.642-3.953,1.767   c-1.016,1.125-1.5,2.608-1.344,4.108c3.5,32.828,10.75,72.109,13.547,88.422c0.438,2.156,0.656,4.328,0.656,6.484   c0,8.438-3.344,16.641-9.453,22.719C366.859,478.328,352,480,345.281,480c-0.617,0-57.281,0-101.93,0   c-1.484,0-2.719-1.25-3.141-2.672c-0.141-0.484-0.211-0.984-0.211-1.5v-9.25c0-26.547,32-19.547,32-66.797   c0-35.344-32.219-64-72-64s-72,28.656-72,64c0,35.25,31.938,41.5,31.938,68.391v7.656c0,0.016,0,0.016,0,0.031   c-0.016,2.125-1.602,4.141-3.727,4.141c-44.21,0-100.89,0-101.507,0c-6.703,0-21.734-1.719-29.406-9.453   C19.281,464.484,16,456.359,16,448c0-2.297,0.25-4.625,0.75-6.922c0.172-0.75,18.445-76.719,18.445-137.063   c0-59.173-17.867-118.892-18.039-119.484C16.39,181.718,16,178.859,16,176.015c0-7.828,2.891-15.516,8.281-21.484   c7.344-8.109,18.328-11.922,29.125-10.063c16.313,2.781,72.672,10.219,105.5,13.734c1.5,0.156,2.984-0.344,4.109-1.344   c1.125-1.016,1.766-2.453,1.766-3.953v-1.328c0-14.984-8.844-20.203-15.938-26.563C135.953,113.453,128,97.563,128,80   c0-35.344,32.219-64,72-64S272,44.656,272,80z" fill="#4D4D4D"/></g></svg>