<?xml version="1.0" ?><!DOCTYPE svg  PUBLIC '-//W3C//DTD SVG 1.1//EN'  'http://www.w3.org/Graphics/SVG/1.1/DTD/svg11.dtd'><svg enable-background="new 0 0 512 512" height="512px" id="Layer_1" version="1.1" viewBox="0 0 512 512" width="512px" xml:space="preserve" xmlns="http://www.w3.org/2000/svg" xmlns:xlink="http://www.w3.org/1999/xlink"><path clip-rule="evenodd" d="M509.353,184.142c-1.49,4.875-65.969,233.052-65.969,233.052  c0,10.726-8.687,19.421-19.403,19.421H20.403C9.687,436.616,1,427.921,1,417.195L70.85,172.49  c2.678-11.572,12.568-19.421,23.284-19.421H486.07C514.751,153.069,512.198,174.835,509.353,184.142z M55.328,156.953L1,347.279  v-221.4V94.805c0-10.726,8.687-19.421,19.403-19.421h151.342c10.716,0,19.403,8.695,19.403,19.421v11.653h232.833  c10.716,0,19.403,8.695,19.403,19.421v11.652H78.611C67.895,137.531,58.006,145.38,55.328,156.953z" fill-rule="evenodd"/></svg>