<?xml version="1.0" ?><svg viewBox="0 0 24 24" xmlns="http://www.w3.org/2000/svg"><title/><g id="Brush"><path d="M6.38,14A3.33,3.33,0,0,0,3,17.5c0,2.16-1.88,4.67-1.9,4.7a.5.5,0,0,0,.38.8h.1a17.49,17.49,0,0,0,3.57-.46C7.83,22,10,19.75,10,17.61A3.62,3.62,0,0,0,6.38,14Z" style="fill:#303c42"/><path d="M10.59,11.29a.5.5,0,0,0-.71,0L8.41,12.76a.5.5,0,0,0,.12.8,4.6,4.6,0,0,1,1.92,1.91.5.5,0,0,0,.37.26h.07a.5.5,0,0,0,.35-.15l1.47-1.47a.5.5,0,0,0,0-.71Z" style="fill:#303c42"/><path d="M21,1a2,2,0,0,0-1.41.59L11.29,9.88a.5.5,0,0,0,0,.71l2.12,2.12a.5.5,0,0,0,.71,0l8.29-8.29A2,2,0,0,0,21,1Z" style="fill:#303c42"/></g></svg>